<svg id="_30-delete" height="512" viewBox="0 0 192 192" width="512" xmlns="http://www.w3.org/2000/svg" xmlns:xlink="http://www.w3.org/1999/xlink" data-name="30-delete"><linearGradient id="New_Gradient_Swatch_1" gradientUnits="userSpaceOnUse" x1="44.343" x2="147.657" y1="103.657" y2=".343"><stop offset="0" stop-color="#34cdfa"/><stop offset="1" stop-color="#e8d9f1"/></linearGradient><path d="m128 40h-16v-16a8.009 8.009 0 0 0 -8-8h-16a8.009 8.009 0 0 0 -8 8v16h-16v-16a24.028 24.028 0 0 1 24-24h16a24.028 24.028 0 0 1 24 24z" fill="#34cdfa"/><path d="m165.842 58.534a8 8 0 0 0 -5.842-2.534h-128a8 8 0 0 0 -7.982 8.532l8 120a8 8 0 0 0 7.982 7.468h112a8 8 0 0 0 7.982-7.468l8-120a8 8 0 0 0 -2.14-5.998z" fill="#ccf2fe"/><path d="m64 176a8 8 0 0 1 -7.982-7.468l-7.503-112.532h-16.515a8 8 0 0 0 -7.982 8.532l8 120a8 8 0 0 0 7.982 7.468h112a8 8 0 0 0 7.982-7.468l.569-8.532z" fill="#99e6fd"/><rect fill="url(#New_Gradient_Swatch_1)" height="40" rx="8" width="176" x="8" y="32"/><g fill="#34cdfa"><path d="m88 88h16v72h-16z"/><path d="m120 88h16v72h-16z"/><path d="m56 88h16v72h-16z"/></g></svg>