<svg xmlns="http://www.w3.org/2000/svg" viewBox="0 0 55 18">
  <defs>
    <style>
      .cls-1 {
        fill: #ff8687;
      }

      .cls-2, .cls-3 {
        fill: #fff;
      }

      .cls-3 {
        fill-rule: evenodd;
      }
    </style>
  </defs>
  <g id="Group_426" data-name="Group 426" transform="translate(-717 -678)">
    <g id="Group_424" data-name="Group 424" transform="translate(0 44)">
      <path id="Path_298" data-name="Path 298" class="cls-1" d="M9,0H46a9,9,0,0,1,0,18H9A9,9,0,0,1,9,0Z" transform="translate(717 634)"/>
      <path id="Path_297" data-name="Path 297" class="cls-2" d="M1.644-8.6a.522.522,0,0,1,.231.039.6.6,0,0,1,.171.159l4.98,6.48q-.018-.156-.024-.3T7-2.508V-8.6h1.02V0H7.428A.5.5,0,0,1,7.2-.048.583.583,0,0,1,7.014-.21L2.04-6.684q.012.15.018.294t.006.264V0H1.044V-8.6ZM12.408-6.174a3.122,3.122,0,0,1,1.2.222,2.537,2.537,0,0,1,.912.63,2.789,2.789,0,0,1,.576.987,3.924,3.924,0,0,1,.2,1.293,3.917,3.917,0,0,1-.2,1.3,2.793,2.793,0,0,1-.576.984,2.5,2.5,0,0,1-.912.627,3.16,3.16,0,0,1-1.2.219,3.16,3.16,0,0,1-1.2-.219,2.533,2.533,0,0,1-.915-.627,2.805,2.805,0,0,1-.582-.984,3.865,3.865,0,0,1-.2-1.3,3.872,3.872,0,0,1,.2-1.293,2.8,2.8,0,0,1,.582-.987,2.566,2.566,0,0,1,.915-.63A3.122,3.122,0,0,1,12.408-6.174Zm0,5.424a1.56,1.56,0,0,0,1.344-.6A2.792,2.792,0,0,0,14.2-3.036a2.818,2.818,0,0,0-.444-1.692,1.557,1.557,0,0,0-1.344-.606,1.865,1.865,0,0,0-.792.156,1.482,1.482,0,0,0-.561.45,2,2,0,0,0-.336.723,3.876,3.876,0,0,0-.111.969,3.84,3.84,0,0,0,.111.966,1.969,1.969,0,0,0,.336.717,1.494,1.494,0,0,0,.561.447A1.865,1.865,0,0,0,12.408-.75Z" transform="translate(741 647)"/>
    </g>
    <g id="Group_425" data-name="Group 425" transform="translate(725.885 682.641)">
      <path id="Path_295" data-name="Path 295" class="cls-3" d="M-4.456-.344l-.62-.621-3.4,3.4-3.4-3.4-.62.621,3.4,3.4-3.4,3.4.62.62,3.4-3.4,3.4,3.4.62-.62-3.4-3.4Z" transform="translate(12.495 0.965)"/>
    </g>
  </g>
</svg>
