<svg xmlns="http://www.w3.org/2000/svg" viewBox="0 0 55 18">
  <defs>
    <style>
      .cls-1 {
        fill: #8bc34a;
      }

      .cls-2, .cls-3 {
        fill: #fff;
      }

      .cls-2 {
        fill-rule: evenodd;
      }
    </style>
  </defs>
  <g id="Group_423" data-name="Group 423" transform="translate(-717 -634)">
    <rect id="Rectangle_81" data-name="Rectangle 81" class="cls-1" width="55" height="18" rx="9" transform="translate(717 634)"/>
    <g id="Group_422" data-name="Group 422" transform="translate(723.681 639.607)">
      <path id="Path_291" data-name="Path 291" class="cls-2" d="M-5.6-.329l-.593-.593L-12.3,5.246-15.1,2.47l-.592.593L-12.3,6.433l.593-.593,0,0Z" transform="translate(15.688 0.922)"/>
    </g>
    <path id="Path_296" data-name="Path 296" class="cls-3" d="M4.356-3.42V0H3.2V-3.42L.048-8.6h1.02a.363.363,0,0,1,.246.078.745.745,0,0,1,.156.192L3.438-4.986a4.119,4.119,0,0,1,.2.4q.081.186.147.366.066-.186.144-.372a3.263,3.263,0,0,1,.2-.39L6.09-8.328a.768.768,0,0,1,.147-.183A.341.341,0,0,1,6.48-8.6H7.512ZM9.87-6.174a2.713,2.713,0,0,1,1.008.183,2.263,2.263,0,0,1,.8.528,2.407,2.407,0,0,1,.525.852,3.292,3.292,0,0,1,.189,1.155.7.7,0,0,1-.054.336.224.224,0,0,1-.2.084H8.088a3.356,3.356,0,0,0,.156,1,2.049,2.049,0,0,0,.4.711,1.587,1.587,0,0,0,.6.426,2.061,2.061,0,0,0,.78.141,2.288,2.288,0,0,0,.693-.093,3.3,3.3,0,0,0,.5-.2,3.822,3.822,0,0,0,.351-.2.465.465,0,0,1,.243-.093.235.235,0,0,1,.2.1l.3.39a2.029,2.029,0,0,1-.474.417,2.951,2.951,0,0,1-.591.291A3.754,3.754,0,0,1,10.6.027,3.976,3.976,0,0,1,9.93.084,3.09,3.09,0,0,1,8.769-.129a2.548,2.548,0,0,1-.918-.624,2.863,2.863,0,0,1-.6-1.017,4.135,4.135,0,0,1-.216-1.392,3.542,3.542,0,0,1,.2-1.188,2.8,2.8,0,0,1,.561-.957,2.583,2.583,0,0,1,.894-.636A2.935,2.935,0,0,1,9.87-6.174Zm.024.786a1.64,1.64,0,0,0-1.218.447A2.1,2.1,0,0,0,8.124-3.7H11.43a2.163,2.163,0,0,0-.1-.681,1.517,1.517,0,0,0-.3-.534,1.343,1.343,0,0,0-.483-.348A1.629,1.629,0,0,0,9.894-5.388Zm7.338.312a.237.237,0,0,1-.222.132.418.418,0,0,1-.2-.066q-.114-.066-.279-.147a2.62,2.62,0,0,0-.393-.15,1.875,1.875,0,0,0-.54-.069,1.594,1.594,0,0,0-.486.069,1.167,1.167,0,0,0-.369.189.836.836,0,0,0-.234.279.749.749,0,0,0-.081.345.575.575,0,0,0,.135.39,1.173,1.173,0,0,0,.357.27,3.112,3.112,0,0,0,.5.2q.282.087.579.186t.579.219a2.1,2.1,0,0,1,.5.3,1.372,1.372,0,0,1,.357.441,1.35,1.35,0,0,1,.135.627,1.986,1.986,0,0,1-.15.777,1.7,1.7,0,0,1-.444.618,2.141,2.141,0,0,1-.72.411,2.958,2.958,0,0,1-.984.15,3.069,3.069,0,0,1-1.152-.207,2.919,2.919,0,0,1-.876-.531L13.5-1.05a.366.366,0,0,1,.114-.12.32.32,0,0,1,.174-.042.4.4,0,0,1,.228.084q.12.084.291.186a2.239,2.239,0,0,0,.414.186,1.887,1.887,0,0,0,.609.084,1.669,1.669,0,0,0,.546-.081,1.147,1.147,0,0,0,.39-.219A.867.867,0,0,0,16.5-1.29a.988.988,0,0,0,.075-.384.637.637,0,0,0-.135-.417,1.139,1.139,0,0,0-.357-.282,2.909,2.909,0,0,0-.507-.2q-.285-.087-.582-.183t-.582-.219a2.046,2.046,0,0,1-.507-.309,1.4,1.4,0,0,1-.357-.459,1.484,1.484,0,0,1-.135-.663,1.617,1.617,0,0,1,.144-.669,1.641,1.641,0,0,1,.42-.564,2.068,2.068,0,0,1,.678-.387,2.713,2.713,0,0,1,.918-.144,2.9,2.9,0,0,1,1.077.189,2.549,2.549,0,0,1,.825.519Z" transform="translate(740 647)"/>
  </g>
</svg>
